<?xml version="1.0" encoding="utf-8"?>
<!-- Generator: Adobe Illustrator 16.0.0, SVG Export Plug-In . SVG Version: 6.00 Build 0)  -->
<!DOCTYPE svg PUBLIC "-//W3C//DTD SVG 1.0//EN" "http://www.w3.org/TR/2001/REC-SVG-20010904/DTD/svg10.dtd">
<svg version="1.0" id="Layer_1" xmlns="http://www.w3.org/2000/svg" xmlns:xlink="http://www.w3.org/1999/xlink" x="0px" y="0px"
	 width="50.057px" height="45.035px" viewBox="0 0 50.057 45.035" enable-background="new 0 0 50.057 45.035" xml:space="preserve">
<g>
	<path fill="#999999" d="M4.477,8.818H45.58c2.441,0,4.477-1.9,4.477-4.34C50.057,2.035,48.021,0,45.58,0H4.477
		C2.034,0,0,2.035,0,4.479C0,6.918,2.034,8.818,4.477,8.818z"/>
	<path fill="#999999" d="M45.58,18.042H4.477C2.034,18.042,0,20.077,0,22.519s2.034,4.477,4.477,4.477H45.58
		c2.441,0,4.477-2.035,4.477-4.477S48.021,18.042,45.58,18.042z"/>
	<path fill="#999999" d="M45.58,36.082H4.477C2.034,36.082,0,38.117,0,40.559c0,2.443,2.034,4.477,4.477,4.477H45.58
		c2.441,0,4.477-2.033,4.477-4.477C50.057,38.117,48.021,36.082,45.58,36.082z"/>
</g>
</svg>
